<svg xmlns="http://www.w3.org/2000/svg" xmlns:xlink="http://www.w3.org/1999/xlink" version="1.1" width="256px" height="160px" viewBox="-0.5 -0.5 256 160"><defs/><g><g data-cell-id="0"><g data-cell-id="1"><g data-cell-id="BJ8fzQiIANAdjmst9LJn-1"><g><path d="M 7 132 L 7 18.37" fill="none" stroke="rgb(0, 0, 0)" stroke-miterlimit="10" pointer-events="stroke"/><path d="M 7 13.12 L 10.5 20.12 L 7 18.37 L 3.5 20.12 Z" fill="rgb(0, 0, 0)" stroke="rgb(0, 0, 0)" stroke-miterlimit="10" pointer-events="all"/></g></g><g data-cell-id="BJ8fzQiIANAdjmst9LJn-2"><g><path d="M 7 132 L 240.63 132" fill="none" stroke="rgb(0, 0, 0)" stroke-miterlimit="10" pointer-events="stroke"/><path d="M 245.88 132 L 238.88 135.5 L 240.63 132 L 238.88 128.5 Z" fill="rgb(0, 0, 0)" stroke="rgb(0, 0, 0)" stroke-miterlimit="10" pointer-events="all"/></g></g><g data-cell-id="BJ8fzQiIANAdjmst9LJn-4"><g><path d="M 177 32 Q 47.5 32.5 47 112" fill="none" stroke="rgb(0, 0, 0)" stroke-miterlimit="10" pointer-events="stroke"/></g></g><g data-cell-id="BJ8fzQiIANAdjmst9LJn-6"><g><path d="M 7 62 Q 7 62 67 62" fill="none" stroke="rgb(0, 0, 0)" stroke-miterlimit="10" stroke-dasharray="3 3" pointer-events="stroke"/></g></g><g data-cell-id="BJ8fzQiIANAdjmst9LJn-9"><g><path d="M 67 132 Q 67 132 67 62" fill="none" stroke="rgb(0, 0, 0)" stroke-miterlimit="10" stroke-dasharray="3 3" pointer-events="stroke"/></g></g><g data-cell-id="BJ8fzQiIANAdjmst9LJn-10"><g><path d="M 107 132 Q 107 132 107 42" fill="none" stroke="rgb(0, 0, 0)" stroke-miterlimit="10" stroke-dasharray="3 3" pointer-events="stroke"/></g></g><g data-cell-id="BJ8fzQiIANAdjmst9LJn-12"><g><path d="M 7 42 Q 7 42 185 42" fill="none" stroke="rgb(0, 0, 0)" stroke-miterlimit="10" stroke-dasharray="3 3" pointer-events="stroke"/></g></g><g data-cell-id="BJ8fzQiIANAdjmst9LJn-13"><g><path d="M 67 62 Q 67 62 21.97 98.02" fill="none" stroke="rgb(0, 0, 0)" stroke-miterlimit="10" pointer-events="stroke"/><path d="M 17.87 101.3 L 21.15 94.2 L 21.97 98.02 L 25.53 99.66 Z" fill="rgb(0, 0, 0)" stroke="rgb(0, 0, 0)" stroke-miterlimit="10" pointer-events="all"/></g></g><g data-cell-id="BJ8fzQiIANAdjmst9LJn-14"><g><path d="M 107 40 Q 107 40 160.9 23.83" fill="none" stroke="rgb(0, 0, 0)" stroke-miterlimit="10" pointer-events="stroke"/><path d="M 165.93 22.32 L 160.23 27.69 L 160.9 23.83 L 158.22 20.98 Z" fill="rgb(0, 0, 0)" stroke="rgb(0, 0, 0)" stroke-miterlimit="10" pointer-events="all"/></g></g><g data-cell-id="BJ8fzQiIANAdjmst9LJn-17"><g><path d="M 59 68 Q 56 68 56 63" fill="none" stroke="rgb(0, 0, 0)" stroke-miterlimit="10" pointer-events="stroke"/></g></g><g data-cell-id="BJ8fzQiIANAdjmst9LJn-18"><g><path d="M 129 42 Q 131 42 131 33" fill="none" stroke="rgb(0, 0, 0)" stroke-miterlimit="10" pointer-events="stroke"/></g></g><g data-cell-id="BJ8fzQiIANAdjmst9LJn-19"><g><path d="M 84 50 Q 84 50 84 69.63" fill="none" stroke="rgb(0, 0, 0)" stroke-miterlimit="10" pointer-events="stroke"/><path d="M 84 74.88 L 80.5 67.88 L 84 69.63 L 87.5 67.88 Z" fill="rgb(0, 0, 0)" stroke="rgb(0, 0, 0)" stroke-miterlimit="10" pointer-events="all"/></g></g><g data-cell-id="BJ8fzQiIANAdjmst9LJn-20"><g><rect x="56" y="123" width="24" height="26" fill="none" stroke="none" pointer-events="all"/></g><g><g fill="rgb(0, 0, 0)" font-family="&quot;Helvetica&quot;" text-anchor="middle" font-size="12px"><text x="67.5" y="140.5">x</text></g></g></g><g data-cell-id="BJ8fzQiIANAdjmst9LJn-21"><g><rect x="83" y="125" width="44" height="26" fill="none" stroke="none" pointer-events="all"/></g><g><g fill="rgb(0, 0, 0)" font-family="&quot;Helvetica&quot;" text-anchor="middle" font-size="12px"><text x="104.5" y="142.5">x+dx</text></g></g></g><g data-cell-id="BJ8fzQiIANAdjmst9LJn-22"><g><rect x="9" y="94" width="25" height="26" fill="none" stroke="none" pointer-events="all"/></g><g><g fill="rgb(0, 0, 0)" font-family="&quot;Helvetica&quot;" text-anchor="middle" font-size="12px"><text x="21" y="111.5">T</text></g></g></g><g data-cell-id="BJ8fzQiIANAdjmst9LJn-23"><g><rect x="12" y="55" width="47" height="26" fill="none" stroke="none" pointer-events="all"/></g><g><g fill="rgb(0, 0, 0)" font-family="&quot;Helvetica&quot;" text-anchor="middle" font-size="12px"><text x="35" y="72.5">alpha</text></g></g></g><g data-cell-id="BJ8fzQiIANAdjmst9LJn-24"><g><rect x="52" y="47" width="28" height="26" fill="none" stroke="none" pointer-events="all"/></g><g><g fill="rgb(0, 0, 0)" font-family="&quot;Helvetica&quot;" text-anchor="middle" font-size="12px"><text x="65.5" y="64.5">M</text></g></g></g><g data-cell-id="BJ8fzQiIANAdjmst9LJn-27"><g><rect x="93" y="12" width="30" height="26" fill="none" stroke="none" pointer-events="all"/></g><g><g fill="rgb(0, 0, 0)" font-family="&quot;Helvetica&quot;" text-anchor="middle" font-size="12px"><text x="107.5" y="29.5">M'</text></g></g></g><g data-cell-id="BJ8fzQiIANAdjmst9LJn-28"><g><rect x="79" y="44" width="31" height="26" fill="none" stroke="none" pointer-events="all"/></g><g><g fill="rgb(0, 0, 0)" font-family="&quot;Helvetica&quot;" text-anchor="middle" font-size="12px"><text x="94" y="61.5">ds</text></g></g></g><g data-cell-id="BJ8fzQiIANAdjmst9LJn-30"><g><rect x="165" y="0" width="28" height="26" fill="none" stroke="none" pointer-events="all"/></g><g><g fill="rgb(0, 0, 0)" font-family="&quot;Helvetica&quot;" text-anchor="middle" font-size="12px"><text x="178.5" y="17.5">T'</text></g></g></g><g data-cell-id="BJ8fzQiIANAdjmst9LJn-31"><g><rect x="174" y="18" width="50" height="26" fill="none" stroke="none" pointer-events="all"/></g><g><g fill="rgb(0, 0, 0)" font-family="&quot;Helvetica&quot;" text-anchor="middle" font-size="12px"><text x="198.5" y="35.5">alpha'</text></g></g></g><g data-cell-id="BJ8fzQiIANAdjmst9LJn-32"><g><rect x="230" y="133" width="24" height="26" fill="none" stroke="none" pointer-events="all"/></g><g><g fill="rgb(0, 0, 0)" font-family="&quot;Helvetica&quot;" text-anchor="middle" font-size="12px"><text x="241.5" y="150.5">x</text></g></g></g><g data-cell-id="BJ8fzQiIANAdjmst9LJn-33"><g><rect x="5" y="5" width="25" height="26" fill="none" stroke="none" pointer-events="all"/></g><g><g fill="rgb(0, 0, 0)" font-family="&quot;Helvetica&quot;" text-anchor="middle" font-size="12px"><text x="17" y="22.5">u</text></g></g></g></g></g></g></svg>